<svg xmlns="http://www.w3.org/2000/svg" version="1.1" xmlns:xlink="http://www.w3.org/1999/xlink" xmlns:svgjs="http://svgjs.com/svgjs" width="185px" height="161px"><svg version="1.0" xmlns="http://www.w3.org/2000/svg" width="185px" height="161px" viewBox="0 0 185 161" preserveAspectRatio="xMidYMid meet">
 <g fill="#1da0dc">
  <path d="M54.7 152.3 c-0.4 -0.3 -0.7 -28.5 -0.7 -62.5 l0 -61.8 -24 0 -24 0 0 -12.5 0 -12.6 54.3 0.3 c48.9 0.3 54.6 0.5 58.8 2.1 5 1.9 11.3 7.2 15.1 12.7 2.6 3.7 5 10.7 4 11.4 -0.4 0.2 -4.1 -0.3 -8.2 -1.1 -5.4 -1 -13.1 -1.3 -28 -1.1 l-20.5 0.3 -0.3 62.8 -0.2 62.7 -12.8 0 c-7.1 0 -13.2 -0.3 -13.5 -0.7z"></path>
  <path d="M89.8 151.9 c-0.7 -1.9 -0.8 -19 -0.2 -21.1 0.5 -1.6 2.5 -1.8 22.8 -1.8 24.4 0 28.5 -0.7 36 -6.1 5.1 -3.7 7.6 -8 7.6 -13 0 -5.7 -3.1 -10.7 -9.3 -15 -9.1 -6.4 -13.5 -7.3 -36.7 -7.3 l-20.5 -0.1 -0.3 -9.5 c-0.5 -15.3 -3.1 -13.8 24.5 -14.2 25.1 -0.3 27.2 -0.7 31.5 -5.5 2 -2.2 4.8 -13.1 4.8 -19 0 -9 -5.5 -20.9 -14.3 -30.8 -2 -2.2 -3.3 -4.3 -3.1 -4.7 0.6 -0.9 6.2 -0.4 12.2 1.1 3.9 1 7.5 2.8 16.7 8.5 3.2 2 13.5 13.7 13.5 15.3 0 0.6 0.8 2.5 1.8 4.4 2.7 5.3 2.3 18.1 -0.8 23.8 -2.8 5.2 -8.9 11.6 -14.7 15.5 -2.4 1.6 -4.3 3.3 -4.3 3.8 0 0.5 2.4 2 5.4 3.4 4.6 2.1 8.8 5.9 13.5 12 1.5 1.9 4.9 12 5.6 16.5 1.6 10.5 -4.5 26.6 -12.3 32.6 -12.8 10 -19.3 11.5 -52.3 12 -21.8 0.4 -26.7 0.3 -27.1 -0.8z"></path>
 </g>
</svg><style>@media (prefers-color-scheme: light) { :root { filter: none; } }
</style></svg>